<?xml version="1.0" encoding="UTF-8"?> <svg xmlns="http://www.w3.org/2000/svg" width="1604" height="121" viewBox="0 0 1604 121"><g fill="none" fill-rule="evenodd" transform="translate(-157 -7940)"><path fill="#f0f0f0" d="m0 0h1920v8170h-1920z"></path><g transform="translate(0 70)"><path fill="#fff" d="m0 7200h1920v900h-1920z"></path><g transform="translate(164 7877)"><path fill="#006dae" d="m113.699997 12.8000002c2.800003-2.8 4.300003-6.5 4.300003-10.5 0-1.29999996-1-2.29999996-2.300003-2.29999996s-2.300003 1-2.300003 2.29999996c0 1.8000002-.5 3.5999999-1.400002 5.0999999-.900001-1.5999999-1.400001-3.2999997-1.400001-5.0999999 0-1.29999996-1-2.29999996-2.300003-2.29999996s-2.300003 1-2.300003 2.29999996c0 3.0999999 1 6.0999994 2.699997 8.6000004-1.699997 1.0999996-3.599999 1.6999998-5.699997 1.6999998-2.800003 0-5.300003-1.1000002-7.300003-3-.900002-.8999996-2.400002-.8999996-3.300003 0-.900002.8999998-.900002 2.3999998 0 3.3000002 2.199997 2.1999998 4.900001 3.5999996 8 4.1999994l-3 .8-17.900002 5 .199997.7c.900002 3.100001 3.5 5.5 6.699997 6.100001l10.900002 1.899999.099998-.0999998v8.9000018h-22.199974c-14.299999 0-25.900002 11.5999982-25.900002 25.900001l-1.7 38.599999c-.099999 1 .799999 1.900001 1.799999 1.900001h1.900001c.8 0 1.599999-.599998 1.700001-1.5l6-33.599998 6.000004 33.599998c.199997.800003.900002 1.5 1.699997 1.5h1.900001c1 0 1.900002-.800003 1.800004-1.900001l-1.800004-38.599999h5.199997 8.400002l-1.900002 38.599999c-.099998 1 .800003 1.900001 1.800003 1.900001h1.900002c.800003 0 1.599998-.599998 1.699997-1.5l6-33.599998 6 33.599998c.199997.800003.900001 1.5 1.699997 1.5h1.900001c1 0 1.900002-.800003 1.800003-1.900001l-1.900001-39.099999c8.599998-2 14.300003-10.8000028 12.099998-19.900001l-5.799995-22.9000018c.5.3999998 1 .7000008 1.599998 1 3.300004 1.3999998 7.099999-.2000012 8.400002-3.5l-9.800003-4c2.300003-.8000004 4.300003-2 6-3.7z"></path><path fill="#5a2d00" d="m68.5 66.099998c0-14.299999-11.599998-25.900001-25.900002-25.900001h-22.199998v-8.9l.1.100001 11-1.899998c3.299999-.5 5.799999-3 6.700001-6.100002l.200001-.700001-17.900002-5-3-.799999c3-.5000003 5.800003-1.899998 8-4.2000001.900002-.8999996.900002-2.4000006 0-3.3000002-.899998-.8999977-2.399998-.8999977-3.299997 0-1.9 1.8999996-4.5 3-7.3000005 3-2 0-4-.6000004-5.6999998-1.6999998 1.6999998-2.5 2.6999998-5.5 2.6999998-8.6000004-.0000029-1.0999975-1.0000029-2.0999975-2.3000021-2.0999975-1.2999993 0-2.2000003 1-2.2000003 2.3 0 1.7999999-.5 3.5999996-1.4000001 5.0999996-.9000001-1.4999995-1.4000001-3.1999998-1.4000001-5.0999996 0-1.3-1-2.3-2.2999999-2.3-1.3 0-2.3 1-2.3 2.3 0 4.0000002 1.60000002 7.7 4.3000002 10.5000002 1.6999998 1.6999998 3.6999998 2.9000006 5.8000002 3.5999994l-9.80000021 4.1000004c1.40000001 3.299999 5.09999991 4.9 8.39999961 3.5.6000004-.200001 1.1000004-.5 1.6000004-1l-5.6000004 22.700001c-2.4000001 9 3.4000006 17.899997 12.0999992 19.899997l-1.8999994 39.099999c-.1000004 1 .8000002 1.900001 1.7999993 1.900001h1.8999991c.8 0 1.600001-.599998 1.700001-1.5l6-33.599998 6 33.599998c.200001.800004.900002 1.5 1.700001 1.5h1.900002c1 0 1.900001-.800003 1.799999-1.900001l-1.900002-38.599999h8.399998 5.200001l-1.8 38.599999c-.099998 1 .8 1.900001 1.8 1.900001h1.900001c.799999 0 1.599999-.599998 1.700001-1.5l6-33.599998 6 33.599998c.199997.800004.900002 1.5 1.699997 1.5h1.900001c1 0 1.900002-.800003 1.800004-1.900001z"></path></g><g transform="translate(298 7877)"><path fill="#007d8c" d="m113.699997 12.8000002c2.800003-2.8 4.300003-6.5 4.300003-10.5 0-1.29999996-1-2.29999996-2.300003-2.29999996s-2.300003 1-2.300003 2.29999996c0 1.8000002-.5 3.5999999-1.400002 5.0999999-.900001-1.5999999-1.400001-3.2999997-1.400001-5.0999999 0-1.29999996-1-2.29999996-2.300003-2.29999996s-2.300003 1-2.300003 2.29999996c0 3.0999999 1 6.0999994 2.699997 8.6000004-1.699997 1.0999996-3.599999 1.6999998-5.699997 1.6999998-2.800003 0-5.300003-1.1000002-7.300003-3-.900002-.8999996-2.400002-.8999996-3.300003 0-.900002.8999998-.900002 2.3999998 0 3.3000002 2.199997 2.1999998 4.900001 3.5999996 8 4.1999994l-3 .8-17.900002 5 .199997.7c.900002 3.100001 3.5 5.5 6.699997 6.100001l10.900002 1.899999.099998-.0999998v8.9000018h-22.199974c-14.299999 0-25.900002 11.5999982-25.900002 25.900001l-1.7 38.599999c-.099999 1 .799999 1.900001 1.799999 1.900001h1.900001c.8 0 1.599999-.599998 1.700001-1.5l6-33.599998 6.000004 33.599998c.199997.800003.900002 1.5 1.699997 1.5h1.900001c1 0 1.900002-.800003 1.800004-1.900001l-1.800004-38.599999h5.199997 8.400002l-1.900002 38.599999c-.099998 1 .800003 1.900001 1.800003 1.900001h1.900002c.800003 0 1.599998-.599998 1.699997-1.5l6-33.599998 6 33.599998c.199997.800003.900001 1.5 1.699997 1.5h1.900001c1 0 1.900002-.800003 1.800003-1.900001l-1.900001-39.099999c8.599998-2 14.300003-10.8000028 12.099998-19.900001l-5.799995-22.9000018c.5.3999998 1 .7000008 1.599998 1 3.300004 1.3999998 7.099999-.2000012 8.400002-3.5l-9.800003-4c2.300003-.8000004 4.300003-2 6-3.7z"></path><path fill="#aad282" d="m68.5 66.099998c0-14.299999-11.599998-25.900001-25.900002-25.900001h-22.199998v-8.9l.1.100001 11-1.899998c3.299999-.5 5.799999-3 6.700001-6.100002l.200001-.700001-17.900002-5-3-.799999c3-.5000003 5.800003-1.899998 8-4.2000001.900002-.8999996.900002-2.4000006 0-3.3000002-.899998-.8999977-2.399998-.8999977-3.299997 0-1.9 1.8999996-4.5 3-7.3000005 3-2 0-4-.6000004-5.6999998-1.6999998 1.6999998-2.5 2.6999998-5.5 2.6999998-8.6000004-.0000029-1.0999975-1.0000029-2.0999975-2.3000021-2.0999975-1.2999993 0-2.2000003 1-2.2000003 2.3 0 1.7999999-.5 3.5999996-1.4000001 5.0999996-.9000001-1.4999995-1.4000001-3.1999998-1.4000001-5.0999996 0-1.3-1-2.3-2.2999999-2.3-1.3 0-2.3 1-2.3 2.3 0 4.0000002 1.60000002 7.7 4.3000002 10.5000002 1.6999998 1.6999998 3.6999998 2.9000006 5.8000002 3.5999994l-9.80000021 4.1000004c1.40000001 3.299999 5.09999991 4.9 8.39999961 3.5.6000004-.200001 1.1000004-.5 1.6000004-1l-5.6000004 22.700001c-2.4000001 9 3.4000006 17.899997 12.0999992 19.899997l-1.8999994 39.099999c-.1000004 1 .8000002 1.900001 1.7999993 1.900001h1.8999991c.8 0 1.600001-.599998 1.700001-1.5l6-33.599998 6 33.599998c.200001.800004.900002 1.5 1.700001 1.5h1.900002c1 0 1.900001-.800003 1.799999-1.900001l-1.900002-38.599999h8.399998 5.200001l-1.8 38.599999c-.099998 1 .8 1.900001 1.8 1.900001h1.900001c.799999 0 1.599999-.599998 1.700001-1.5l6-33.599998 6 33.599998c.199997.800004.900002 1.5 1.699997 1.5h1.900001c1 0 1.900002-.800003 1.800004-1.900001z"></path></g><g transform="translate(432 7877)"><path fill="#29561b" d="m113.699997 12.8000002c2.800003-2.8 4.300003-6.5 4.300003-10.5 0-1.29999996-1-2.29999996-2.300003-2.29999996s-2.300003 1-2.300003 2.29999996c0 1.8000002-.5 3.5999999-1.400002 5.0999999-.900001-1.5999999-1.400001-3.2999997-1.400001-5.0999999 0-1.29999996-1-2.29999996-2.300003-2.29999996s-2.300003 1-2.300003 2.29999996c0 3.0999999 1 6.0999994 2.699997 8.6000004-1.699997 1.0999996-3.599999 1.6999998-5.699997 1.6999998-2.800003 0-5.300003-1.1000002-7.300003-3-.900002-.8999996-2.400002-.8999996-3.300003 0-.900002.8999998-.900002 2.3999998 0 3.3000002 2.199997 2.1999998 4.900001 3.5999996 8 4.1999994l-3 .8-17.900002 5 .199997.7c.900002 3.100001 3.5 5.5 6.699997 6.100001l10.900002 1.899999.099998-.0999998v8.9000018h-22.199974c-14.299999 0-25.900002 11.5999982-25.900002 25.900001l-1.7 38.599999c-.099999 1 .799999 1.900001 1.799999 1.900001h1.900001c.8 0 1.599999-.599998 1.700001-1.5l6-33.599998 6.000004 33.599998c.199997.800003.900002 1.5 1.699997 1.5h1.900001c1 0 1.900002-.800003 1.800004-1.900001l-1.800004-38.599999h5.199997 8.400002l-1.900002 38.599999c-.099998 1 .800003 1.900001 1.800003 1.900001h1.900002c.800003 0 1.599998-.599998 1.699997-1.5l6-33.599998 6 33.599998c.199997.800003.900001 1.5 1.699997 1.5h1.900001c1 0 1.900002-.800003 1.800003-1.900001l-1.900001-39.099999c8.599998-2 14.300003-10.8000028 12.099998-19.900001l-5.799995-22.9000018c.5.3999998 1 .7000008 1.599998 1 3.300004 1.3999998 7.099999-.2000012 8.400002-3.5l-9.800003-4c2.300003-.8000004 4.300003-2 6-3.7z"></path><path fill="#aa144e" d="m68.5 66.099998c0-14.299999-11.599998-25.900001-25.900002-25.900001h-22.199998v-8.9l.1.100001 11-1.899998c3.299999-.5 5.799999-3 6.700001-6.100002l.200001-.700001-17.900002-5-3-.799999c3-.5000003 5.800003-1.899998 8-4.2000001.900002-.8999996.900002-2.4000006 0-3.3000002-.899998-.8999977-2.399998-.8999977-3.299997 0-1.9 1.8999996-4.5 3-7.3000005 3-2 0-4-.6000004-5.6999998-1.6999998 1.6999998-2.5 2.6999998-5.5 2.6999998-8.6000004-.0000029-1.0999975-1.0000029-2.0999975-2.3000021-2.0999975-1.2999993 0-2.2000003 1-2.2000003 2.3 0 1.7999999-.5 3.5999996-1.4000001 5.0999996-.9000001-1.4999995-1.4000001-3.1999998-1.4000001-5.0999996 0-1.3-1-2.3-2.2999999-2.3-1.3 0-2.3 1-2.3 2.3 0 4.0000002 1.60000002 7.7 4.3000002 10.5000002 1.6999998 1.6999998 3.6999998 2.9000006 5.8000002 3.5999994l-9.80000021 4.1000004c1.40000001 3.299999 5.09999991 4.9 8.39999961 3.5.6000004-.200001 1.1000004-.5 1.6000004-1l-5.6000004 22.700001c-2.4000001 9 3.4000006 17.899997 12.0999992 19.899997l-1.8999994 39.099999c-.1000004 1 .8000002 1.900001 1.7999993 1.900001h1.8999991c.8 0 1.600001-.599998 1.700001-1.5l6-33.599998 6 33.599998c.200001.800004.900002 1.5 1.700001 1.5h1.900002c1 0 1.900001-.800003 1.799999-1.900001l-1.900002-38.599999h8.399998 5.200001l-1.8 38.599999c-.099998 1 .8 1.900001 1.8 1.900001h1.900001c.799999 0 1.599999-.599998 1.700001-1.5l6-33.599998 6 33.599998c.199997.800004.900002 1.5 1.699997 1.5h1.900001c1 0 1.900002-.800003 1.800004-1.900001z"></path></g><g transform="translate(566 7877)"><path fill="#dca56e" d="m113.699997 12.8000002c2.800003-2.8 4.300003-6.5 4.300003-10.5 0-1.29999996-1-2.29999996-2.300003-2.29999996s-2.300003 1-2.300003 2.29999996c0 1.8000002-.5 3.5999999-1.400002 5.0999999-.900001-1.5999999-1.400001-3.2999997-1.400001-5.0999999 0-1.29999996-1-2.29999996-2.300003-2.29999996s-2.300003 1-2.300003 2.29999996c0 3.0999999 1 6.0999994 2.699997 8.6000004-1.699997 1.0999996-3.599999 1.6999998-5.699997 1.6999998-2.800003 0-5.300003-1.1000002-7.300003-3-.900002-.8999996-2.400002-.8999996-3.300003 0-.900002.8999998-.900002 2.3999998 0 3.3000002 2.199997 2.1999998 4.900001 3.5999996 8 4.1999994l-3 .8-17.900002 5 .199997.7c.900002 3.100001 3.5 5.5 6.699997 6.100001l10.900002 1.899999.099998-.0999998v8.9000018h-22.199974c-14.299999 0-25.900002 11.5999982-25.900002 25.900001l-1.7 38.599999c-.099999 1 .799999 1.900001 1.799999 1.900001h1.900001c.8 0 1.599999-.599998 1.700001-1.5l6-33.599998 6.000004 33.599998c.199997.800003.900002 1.5 1.699997 1.5h1.900001c1 0 1.900002-.800003 1.800004-1.900001l-1.800004-38.599999h5.199997 8.400002l-1.900002 38.599999c-.099998 1 .800003 1.900001 1.800003 1.900001h1.900002c.800003 0 1.599998-.599998 1.699997-1.5l6-33.599998 6 33.599998c.199997.800003.900001 1.5 1.699997 1.5h1.900001c1 0 1.900002-.800003 1.800003-1.900001l-1.900001-39.099999c8.599998-2 14.300003-10.8000028 12.099998-19.900001l-5.799995-22.9000018c.5.3999998 1 .7000008 1.599998 1 3.300004 1.3999998 7.099999-.2000012 8.400002-3.5l-9.800003-4c2.300003-.8000004 4.300003-2 6-3.7z"></path><path fill="#f29fb6" d="m68.5 66.099998c0-14.299999-11.599998-25.900001-25.900002-25.900001h-22.199998v-8.9l.1.100001 11-1.899998c3.299999-.5 5.799999-3 6.700001-6.100002l.200001-.700001-17.900002-5-3-.799999c3-.5000003 5.800003-1.899998 8-4.2000001.900002-.8999996.900002-2.4000006 0-3.3000002-.899998-.8999977-2.399998-.8999977-3.299997 0-1.9 1.8999996-4.5 3-7.3000005 3-2 0-4-.6000004-5.6999998-1.6999998 1.6999998-2.5 2.6999998-5.5 2.6999998-8.6000004-.0000029-1.0999975-1.0000029-2.0999975-2.3000021-2.0999975-1.2999993 0-2.2000003 1-2.2000003 2.3 0 1.7999999-.5 3.5999996-1.4000001 5.0999996-.9000001-1.4999995-1.4000001-3.1999998-1.4000001-5.0999996 0-1.3-1-2.3-2.2999999-2.3-1.3 0-2.3 1-2.3 2.3 0 4.0000002 1.60000002 7.7 4.3000002 10.5000002 1.6999998 1.6999998 3.6999998 2.9000006 5.8000002 3.5999994l-9.80000021 4.1000004c1.40000001 3.299999 5.09999991 4.9 8.39999961 3.5.6000004-.200001 1.1000004-.5 1.6000004-1l-5.6000004 22.700001c-2.4000001 9 3.4000006 17.899997 12.0999992 19.899997l-1.8999994 39.099999c-.1000004 1 .8000002 1.900001 1.7999993 1.900001h1.8999991c.8 0 1.600001-.599998 1.700001-1.5l6-33.599998 6 33.599998c.200001.800004.900002 1.5 1.700001 1.5h1.900002c1 0 1.900001-.800003 1.799999-1.900001l-1.900002-38.599999h8.399998 5.200001l-1.8 38.599999c-.099998 1 .8 1.900001 1.8 1.900001h1.900001c.799999 0 1.599999-.599998 1.700001-1.5l6-33.599998 6 33.599998c.199997.800004.900002 1.5 1.699997 1.5h1.900001c1 0 1.900002-.800003 1.800004-1.900001z"></path></g><g transform="translate(834 7877)"><path fill="#461e50" d="m113.699997 12.8000002c2.800003-2.8 4.300003-6.5 4.300003-10.5 0-1.29999996-1-2.29999996-2.300003-2.29999996s-2.300003 1-2.300003 2.29999996c0 1.8000002-.5 3.5999999-1.400002 5.0999999-.900001-1.5999999-1.400001-3.2999997-1.400001-5.0999999 0-1.29999996-1-2.29999996-2.300003-2.29999996s-2.300003 1-2.300003 2.29999996c0 3.0999999 1 6.0999994 2.699997 8.6000004-1.699997 1.0999996-3.599999 1.6999998-5.699997 1.6999998-2.800003 0-5.300003-1.1000002-7.300003-3-.900002-.8999996-2.400002-.8999996-3.300003 0-.900002.8999998-.900002 2.3999998 0 3.3000002 2.199997 2.1999998 4.900001 3.5999996 8 4.1999994l-3 .8-17.900002 5 .199997.7c.900002 3.100001 3.5 5.5 6.699997 6.100001l10.900002 1.899999.099998-.0999998v8.9000018h-22.199974c-14.299999 0-25.900002 11.5999982-25.900002 25.900001l-1.7 38.599999c-.099999 1 .799999 1.900001 1.799999 1.900001h1.900001c.8 0 1.599999-.599998 1.700001-1.5l6-33.599998 6.000004 33.599998c.199997.800003.900002 1.5 1.699997 1.5h1.900001c1 0 1.900002-.800003 1.800004-1.900001l-1.800004-38.599999h5.199997 8.400002l-1.900002 38.599999c-.099998 1 .800003 1.900001 1.800003 1.900001h1.900002c.800003 0 1.599998-.599998 1.699997-1.5l6-33.599998 6 33.599998c.199997.800003.900001 1.5 1.699997 1.5h1.900001c1 0 1.900002-.800003 1.800003-1.900001l-1.900001-39.099999c8.599998-2 14.300003-10.8000028 12.099998-19.900001l-5.799995-22.9000018c.5.3999998 1 .7000008 1.599998 1 3.300004 1.3999998 7.099999-.2000012 8.400002-3.5l-9.800003-4c2.300003-.8000004 4.300003-2 6-3.7z"></path><path fill="#f08264" d="m68.5 66.099998c0-14.299999-11.599998-25.900001-25.900002-25.900001h-22.199998v-8.9l.1.100001 11-1.899998c3.299999-.5 5.799999-3 6.700001-6.100002l.200001-.700001-17.900002-5-3-.799999c3-.5000003 5.800003-1.899998 8-4.2000001.900002-.8999996.900002-2.4000006 0-3.3000002-.899998-.8999977-2.399998-.8999977-3.299997 0-1.9 1.8999996-4.5 3-7.3000005 3-2 0-4-.6000004-5.6999998-1.6999998 1.6999998-2.5 2.6999998-5.5 2.6999998-8.6000004-.0000029-1.0999975-1.0000029-2.0999975-2.3000021-2.0999975-1.2999993 0-2.2000003 1-2.2000003 2.3 0 1.7999999-.5 3.5999996-1.4000001 5.0999996-.9000001-1.4999995-1.4000001-3.1999998-1.4000001-5.0999996 0-1.3-1-2.3-2.2999999-2.3-1.3 0-2.3 1-2.3 2.3 0 4.0000002 1.60000002 7.7 4.3000002 10.5000002 1.6999998 1.6999998 3.6999998 2.9000006 5.8000002 3.5999994l-9.80000021 4.1000004c1.40000001 3.299999 5.09999991 4.9 8.39999961 3.5.6000004-.200001 1.1000004-.5 1.6000004-1l-5.6000004 22.700001c-2.4000001 9 3.4000006 17.899997 12.0999992 19.899997l-1.8999994 39.099999c-.1000004 1 .8000002 1.900001 1.7999993 1.900001h1.8999991c.8 0 1.600001-.599998 1.700001-1.5l6-33.599998 6 33.599998c.200001.800004.900002 1.5 1.700001 1.5h1.900002c1 0 1.900001-.800003 1.799999-1.900001l-1.900002-38.599999h8.399998 5.200001l-1.8 38.599999c-.099998 1 .8 1.900001 1.8 1.900001h1.900001c.799999 0 1.599999-.599998 1.700001-1.5l6-33.599998 6 33.599998c.199997.800004.900002 1.5 1.699997 1.5h1.900001c1 0 1.900002-.800003 1.800004-1.900001z"></path></g><g transform="translate(968 7877)"><path fill="#ffb45a" d="m113.699997 12.8000002c2.800003-2.8 4.300003-6.5 4.300003-10.5 0-1.29999996-1-2.29999996-2.300003-2.29999996s-2.300003 1-2.300003 2.29999996c0 1.8000002-.5 3.5999999-1.400002 5.0999999-.900001-1.5999999-1.400001-3.2999997-1.400001-5.0999999 0-1.29999996-1-2.29999996-2.300003-2.29999996s-2.300003 1-2.300003 2.29999996c0 3.0999999 1 6.0999994 2.699997 8.6000004-1.699997 1.0999996-3.599999 1.6999998-5.699997 1.6999998-2.800003 0-5.300003-1.1000002-7.300003-3-.900002-.8999996-2.400002-.8999996-3.300003 0-.900002.8999998-.900002 2.3999998 0 3.3000002 2.199997 2.1999998 4.900001 3.5999996 8 4.1999994l-3 .8-17.900002 5 .199997.7c.900002 3.100001 3.5 5.5 6.699997 6.100001l10.900002 1.899999.099998-.0999998v8.9000018h-22.199974c-14.299999 0-25.900002 11.5999982-25.900002 25.900001l-1.7 38.599999c-.099999 1 .799999 1.900001 1.799999 1.900001h1.900001c.8 0 1.599999-.599998 1.700001-1.5l6-33.599998 6.000004 33.599998c.199997.800003.900002 1.5 1.699997 1.5h1.900001c1 0 1.900002-.800003 1.800004-1.900001l-1.800004-38.599999h5.199997 8.400002l-1.900002 38.599999c-.099998 1 .800003 1.900001 1.800003 1.900001h1.900002c.800003 0 1.599998-.599998 1.699997-1.5l6-33.599998 6 33.599998c.199997.800003.900001 1.5 1.699997 1.5h1.900001c1 0 1.900002-.800003 1.800003-1.900001l-1.900001-39.099999c8.599998-2 14.300003-10.8000028 12.099998-19.900001l-5.799995-22.9000018c.5.3999998 1 .7000008 1.599998 1 3.300004 1.3999998 7.099999-.2000012 8.400002-3.5l-9.800003-4c2.300003-.8000004 4.300003-2 6-3.7z"></path><path fill="#91c8c3" d="m68.5 66.099998c0-14.299999-11.599998-25.900001-25.900002-25.900001h-22.199998v-8.9l.1.100001 11-1.899998c3.299999-.5 5.799999-3 6.700001-6.100002l.200001-.700001-17.900002-5-3-.799999c3-.5000003 5.800003-1.899998 8-4.2000001.900002-.8999996.900002-2.4000006 0-3.3000002-.899998-.8999977-2.399998-.8999977-3.299997 0-1.9 1.8999996-4.5 3-7.3000005 3-2 0-4-.6000004-5.6999998-1.6999998 1.6999998-2.5 2.6999998-5.5 2.6999998-8.6000004-.0000029-1.0999975-1.0000029-2.0999975-2.3000021-2.0999975-1.2999993 0-2.2000003 1-2.2000003 2.3 0 1.7999999-.5 3.5999996-1.4000001 5.0999996-.9000001-1.4999995-1.4000001-3.1999998-1.4000001-5.0999996 0-1.3-1-2.3-2.2999999-2.3-1.3 0-2.3 1-2.3 2.3 0 4.0000002 1.60000002 7.7 4.3000002 10.5000002 1.6999998 1.6999998 3.6999998 2.9000006 5.8000002 3.5999994l-9.80000021 4.1000004c1.40000001 3.299999 5.09999991 4.9 8.39999961 3.5.6000004-.200001 1.1000004-.5 1.6000004-1l-5.6000004 22.700001c-2.4000001 9 3.4000006 17.899997 12.0999992 19.899997l-1.8999994 39.099999c-.1000004 1 .8000002 1.900001 1.7999993 1.900001h1.8999991c.8 0 1.600001-.599998 1.700001-1.5l6-33.599998 6 33.599998c.200001.800004.900002 1.5 1.700001 1.5h1.900002c1 0 1.900001-.800003 1.799999-1.900001l-1.900002-38.599999h8.399998 5.200001l-1.8 38.599999c-.099998 1 .8 1.900001 1.8 1.900001h1.900001c.799999 0 1.599999-.599998 1.700001-1.5l6-33.599998 6 33.599998c.199997.800004.900002 1.5 1.699997 1.5h1.900001c1 0 1.900002-.800003 1.800004-1.900001z"></path></g><g transform="translate(1102 7877)"><path fill="#81d3eb" d="m113.699997 12.8000002c2.800003-2.8 4.300003-6.5 4.300003-10.5 0-1.29999996-1-2.29999996-2.300003-2.29999996s-2.300003 1-2.300003 2.29999996c0 1.8000002-.5 3.5999999-1.400002 5.0999999-.900001-1.5999999-1.400001-3.2999997-1.400001-5.0999999 0-1.29999996-1-2.29999996-2.300003-2.29999996s-2.300003 1-2.300003 2.29999996c0 3.0999999 1 6.0999994 2.699997 8.6000004-1.699997 1.0999996-3.599999 1.6999998-5.699997 1.6999998-2.800003 0-5.300003-1.1000002-7.300003-3-.900002-.8999996-2.400002-.8999996-3.300003 0-.900002.8999998-.900002 2.3999998 0 3.3000002 2.199997 2.1999998 4.900001 3.5999996 8 4.1999994l-3 .8-17.900002 5 .199997.7c.900002 3.100001 3.5 5.5 6.699997 6.100001l10.900002 1.899999.099998-.0999998v8.9000018h-22.199974c-14.299999 0-25.900002 11.5999982-25.900002 25.900001l-1.7 38.599999c-.099999 1 .799999 1.900001 1.799999 1.900001h1.900001c.8 0 1.599999-.599998 1.700001-1.5l6-33.599998 6.000004 33.599998c.199997.800003.900002 1.5 1.699997 1.5h1.900001c1 0 1.900002-.800003 1.800004-1.900001l-1.800004-38.599999h5.199997 8.400002l-1.900002 38.599999c-.099998 1 .800003 1.900001 1.800003 1.900001h1.900002c.800003 0 1.599998-.599998 1.699997-1.5l6-33.599998 6 33.599998c.199997.800003.900001 1.5 1.699997 1.5h1.900001c1 0 1.900002-.800003 1.800003-1.900001l-1.900001-39.099999c8.599998-2 14.300003-10.8000028 12.099998-19.900001l-5.799995-22.9000018c.5.3999998 1 .7000008 1.599998 1 3.300004 1.3999998 7.099999-.2000012 8.400002-3.5l-9.800003-4c2.300003-.8000004 4.300003-2 6-3.7z"></path><path fill="#b93c1e" d="m68.5 66.099998c0-14.299999-11.599998-25.900001-25.900002-25.900001h-22.199998v-8.9l.1.100001 11-1.899998c3.299999-.5 5.799999-3 6.700001-6.100002l.200001-.700001-17.900002-5-3-.799999c3-.5000003 5.800003-1.899998 8-4.2000001.900002-.8999996.900002-2.4000006 0-3.3000002-.899998-.8999977-2.399998-.8999977-3.299997 0-1.9 1.8999996-4.5 3-7.3000005 3-2 0-4-.6000004-5.6999998-1.6999998 1.6999998-2.5 2.6999998-5.5 2.6999998-8.6000004-.0000029-1.0999975-1.0000029-2.0999975-2.3000021-2.0999975-1.2999993 0-2.2000003 1-2.2000003 2.3 0 1.7999999-.5 3.5999996-1.4000001 5.0999996-.9000001-1.4999995-1.4000001-3.1999998-1.4000001-5.0999996 0-1.3-1-2.3-2.2999999-2.3-1.3 0-2.3 1-2.3 2.3 0 4.0000002 1.60000002 7.7 4.3000002 10.5000002 1.6999998 1.6999998 3.6999998 2.9000006 5.8000002 3.5999994l-9.80000021 4.1000004c1.40000001 3.299999 5.09999991 4.9 8.39999961 3.5.6000004-.200001 1.1000004-.5 1.6000004-1l-5.6000004 22.700001c-2.4000001 9 3.4000006 17.899997 12.0999992 19.899997l-1.8999994 39.099999c-.1000004 1 .8000002 1.900001 1.7999993 1.900001h1.8999991c.8 0 1.600001-.599998 1.700001-1.5l6-33.599998 6 33.599998c.200001.800004.900002 1.5 1.700001 1.5h1.900002c1 0 1.900001-.800003 1.799999-1.900001l-1.900002-38.599999h8.399998 5.200001l-1.8 38.599999c-.099998 1 .8 1.900001 1.8 1.900001h1.900001c.799999 0 1.599999-.599998 1.700001-1.5l6-33.599998 6 33.599998c.199997.800004.900002 1.5 1.699997 1.5h1.900001c1 0 1.900002-.800003 1.800004-1.900001z"></path></g><g transform="translate(1236 7877)"><path fill="#e68228" d="m113.699997 12.8000002c2.800003-2.8 4.300003-6.5 4.300003-10.5 0-1.29999996-1-2.29999996-2.300003-2.29999996s-2.300003 1-2.300003 2.29999996c0 1.8000002-.5 3.5999999-1.400002 5.0999999-.900001-1.5999999-1.400001-3.2999997-1.400001-5.0999999 0-1.29999996-1-2.29999996-2.300003-2.29999996s-2.300003 1-2.300003 2.29999996c0 3.0999999 1 6.0999994 2.699997 8.6000004-1.699997 1.0999996-3.599999 1.6999998-5.699997 1.6999998-2.800003 0-5.300003-1.1000002-7.300003-3-.900002-.8999996-2.400002-.8999996-3.300003 0-.900002.8999998-.900002 2.3999998 0 3.3000002 2.199997 2.1999998 4.900001 3.5999996 8 4.1999994l-3 .8-17.900002 5 .199997.7c.900002 3.100001 3.5 5.5 6.699997 6.100001l10.900002 1.899999.099998-.0999998v8.9000018h-22.199974c-14.299999 0-25.900002 11.5999982-25.900002 25.900001l-1.7 38.599999c-.099999 1 .799999 1.900001 1.799999 1.900001h1.900001c.8 0 1.599999-.599998 1.700001-1.5l6-33.599998 6.000004 33.599998c.199997.800003.900002 1.5 1.699997 1.5h1.900001c1 0 1.900002-.800003 1.800004-1.900001l-1.800004-38.599999h5.199997 8.400002l-1.900002 38.599999c-.099998 1 .800003 1.900001 1.800003 1.900001h1.900002c.800003 0 1.599998-.599998 1.699997-1.5l6-33.599998 6 33.599998c.199997.800003.900001 1.5 1.699997 1.5h1.900001c1 0 1.900002-.800003 1.800003-1.900001l-1.900001-39.099999c8.599998-2 14.300003-10.8000028 12.099998-19.900001l-5.799995-22.9000018c.5.3999998 1 .7000008 1.599998 1 3.300004 1.3999998 7.099999-.2000012 8.400002-3.5l-9.800003-4c2.300003-.8000004 4.300003-2 6-3.7z"></path><path fill="#519bca" d="m68.5 66.099998c0-14.299999-11.599998-25.900001-25.900002-25.900001h-22.199998v-8.9l.1.100001 11-1.899998c3.299999-.5 5.799999-3 6.700001-6.100002l.200001-.700001-17.900002-5-3-.799999c3-.5000003 5.800003-1.899998 8-4.2000001.900002-.8999996.900002-2.4000006 0-3.3000002-.899998-.8999977-2.399998-.8999977-3.299997 0-1.9 1.8999996-4.5 3-7.3000005 3-2 0-4-.6000004-5.6999998-1.6999998 1.6999998-2.5 2.6999998-5.5 2.6999998-8.6000004-.0000029-1.0999975-1.0000029-2.0999975-2.3000021-2.0999975-1.2999993 0-2.2000003 1-2.2000003 2.3 0 1.7999999-.5 3.5999996-1.4000001 5.0999996-.9000001-1.4999995-1.4000001-3.1999998-1.4000001-5.0999996 0-1.3-1-2.3-2.2999999-2.3-1.3 0-2.3 1-2.3 2.3 0 4.0000002 1.60000002 7.7 4.3000002 10.5000002 1.6999998 1.6999998 3.6999998 2.9000006 5.8000002 3.5999994l-9.80000021 4.1000004c1.40000001 3.299999 5.09999991 4.9 8.39999961 3.5.6000004-.200001 1.1000004-.5 1.6000004-1l-5.6000004 22.700001c-2.4000001 9 3.4000006 17.899997 12.0999992 19.899997l-1.8999994 39.099999c-.1000004 1 .8000002 1.900001 1.7999993 1.900001h1.8999991c.8 0 1.600001-.599998 1.700001-1.5l6-33.599998 6 33.599998c.200001.800004.900002 1.5 1.700001 1.5h1.900002c1 0 1.900001-.800003 1.799999-1.900001l-1.900002-38.599999h8.399998 5.200001l-1.8 38.599999c-.099998 1 .8 1.900001 1.8 1.900001h1.900001c.799999 0 1.599999-.599998 1.700001-1.5l6-33.599998 6 33.599998c.199997.800004.900002 1.5 1.699997 1.5h1.900001c1 0 1.900002-.800003 1.800004-1.900001z"></path></g><g transform="translate(1370 7877)"><path fill="#a56e96" d="m113.699997 12.8000026c2.800003-2.8 4.300003-6.50000002 4.300003-10.50000002 0-1.29999996-1-2.29999996-2.300003-2.29999996s-2.300003 1-2.300003 2.29999996c0 1.8000002-.5 3.5999999-1.400002 5.0999999-.900001-1.5999999-1.400001-3.2999997-1.400001-5.0999999 0-1.29999996-1-2.29999996-2.300003-2.29999996s-2.299988 1-2.299988 2.29999976c0 3.0999996 1 6.0999996 2.699997 8.60000062-1.699997 1.0999996-3.599999 1.6999998-5.699997 1.6999998-2.800003 0-5.300003-1.1000002-7.300003-3.00000002-.900002-.8999996-2.400002-.8999996-3.300003 0-.900002.89999982-.900002 2.39999982 0 3.30000022 2.199997 2.1999998 4.900001 3.5999996 8 4.1999994l-3 .8-17.900002 5 .199997.7c.900002 3.100001 3.5 5.5 6.699997 6.100001l10.900002 1.899999.099998-.0999998v8.9000018h-22.199989c-14.299999 0-25.900002 11.5999982-25.900002 25.900001l-1.7 38.5999986c-.099999 1 .799999 1.900001 1.799999 1.900001h1.900001c.8 0 1.599999-.599998 1.700001-1.5l6-33.5999976 6.000004 33.5999976c.199997.800003.900002 1.5 1.699997 1.5h1.900001c1 0 1.900002-.800002 1.800004-1.900001l-1.800004-38.5999986h5.199997 8.400002l-1.900002 38.5999986c-.099998 1 .800003 1.900001 1.800003 1.900001h1.900002c.800003 0 1.599998-.599998 1.699997-1.5l6-33.5999976 6 33.5999976c.199997.800003.900001 1.5 1.699997 1.5h1.900001c1 0 1.900002-.800002 1.800003-1.900001l-1.900001-39.0999986c8.599998-2 14.300003-10.8000028 12.099998-19.900001l-5.799995-22.9000018c.5.3999998 1 .7000008 1.599998 1 3.300004 1.3999998 7.099999-.2000012 8.400002-3.5l-9.800003-4c2.300003-.8000004 4.300003-2 6-3.7z"></path><path fill="#003264" d="m68.5 66.1000004c0-14.299999-11.599998-25.900001-25.900002-25.900001h-22.199998v-8.9l.1.100001 11-1.9000004c3.299999-.5 5.799999-3 6.700001-6.0999996l.200001-.700001-17.900002-5-3-.799999c3-.5000003 5.800003-1.9000004 8-4.2000001.900002-.8999996.900002-2.4000006 0-3.30000022-.899998-.90000008-2.399998-.90000008-3.299997 0-1.9 1.89999962-4.5 3.00000002-7.3000005 3.00000002-2 0-4-.6000004-5.6999998-1.6999998 1.6999998-2.50000002 2.6999998-5.50000002 2.6999998-8.60000042 0-1.09999988-1-2.09999988-2.3000002-2.09999988s-2.2000022 1-2.2000022 2.30000238c0 1.7999999-.5 3.5999996-1.4000001 5.0999996-.9000001-1.4999995-1.4000001-3.1999998-1.4000001-5.0999996 0-1.30000238-1-2.30000238-2.2999999-2.30000238-1.3 0-2.3 1-2.3 2.30000238 0 4.0000002 1.60000002 7.69999762 4.3000002 10.50000022 1.6999998 1.6999974 3.6999998 2.9000006 5.8000002 3.5999994l-9.80000021 4.099998c1.40000001 3.3000014 5.09999991 4.9000024 8.39999961 3.5.6000004-.1999986 1.1000004-.5 1.6000004-1l-5.6000004 22.7000034c-2.4000001 9 3.4000006 17.899997 12.0999992 19.899997l-1.8999994 39.0999986c-.1000004 1 .8000002 1.900001 1.7999993 1.900001h1.8999991c.8 0 1.600001-.6 1.700001-1.5l6-33.6 6 33.6c.200001.800004.900002 1.5 1.700001 1.5h1.900002c1 0 1.900001-.800003 1.799999-1.900001l-1.900002-38.5999986h8.399998 5.200001l-1.8 38.5999986c-.099998 1 .8 1.900001 1.8 1.900001h1.900001c.799999 0 1.599999-.6 1.700001-1.5l6-33.6 6 33.6c.199997.800004.900002 1.5 1.699997 1.5h1.900001c1 0 1.900002-.800003 1.800004-1.900001z"></path></g><g transform="translate(1504 7877)"><path fill="#f08264" d="m113.699997 12.8000026c2.800003-2.8 4.300003-6.50000002 4.300003-10.50000002 0-1.29999996-1-2.29999996-2.300003-2.29999996s-2.300003 1-2.300003 2.29999996c0 1.8000002-.5 3.5999999-1.400002 5.0999999-.900001-1.5999999-1.400001-3.2999997-1.400001-5.0999999 0-1.29999996-1-2.29999996-2.300003-2.29999996s-2.299988 1-2.299988 2.29999976c0 3.0999996 1 6.0999996 2.699997 8.60000062-1.699997 1.0999996-3.599999 1.6999998-5.699997 1.6999998-2.800003 0-5.300003-1.1000002-7.300003-3.00000002-.900002-.8999996-2.400002-.8999996-3.300003 0-.900002.89999982-.900002 2.39999982 0 3.30000022 2.199997 2.1999998 4.900001 3.5999996 8 4.1999994l-3 .8-17.900002 5 .199997.7c.900002 3.100001 3.5 5.5 6.699997 6.100001l10.900002 1.899999.099998-.0999998v8.9000018h-22.199989c-14.299999 0-25.900002 11.5999982-25.900002 25.900001l-1.7 38.5999986c-.099999 1 .799999 1.900001 1.799999 1.900001h1.900001c.8 0 1.599999-.599998 1.700001-1.5l6-33.5999976 6.000004 33.5999976c.199997.800003.900002 1.5 1.699997 1.5h1.900001c1 0 1.900002-.800002 1.800004-1.900001l-1.800004-38.5999986h5.199997 8.400002l-1.900002 38.5999986c-.099998 1 .800003 1.900001 1.800003 1.900001h1.900002c.800003 0 1.599998-.599998 1.699997-1.5l6-33.5999976 6 33.5999976c.199997.800003.900001 1.5 1.699997 1.5h1.900001c1 0 1.900002-.800002 1.800003-1.900001l-1.900001-39.0999986c8.599998-2 14.300003-10.8000028 12.099998-19.900001l-5.799995-22.9000018c.5.3999998 1 .7000008 1.599998 1 3.300004 1.3999998 7.099999-.2000012 8.400002-3.5l-9.800003-4c2.300003-.8000004 4.300003-2 6-3.7z"></path><path fill="#d4e682" d="m68.5 66.1000004c0-14.299999-11.599998-25.900001-25.900002-25.900001h-22.199998v-8.9l.1.100001 11-1.9000004c3.299999-.5 5.799999-3 6.700001-6.0999996l.200001-.700001-17.900002-5-3-.799999c3-.5000003 5.800003-1.9000004 8-4.2000001.900002-.8999996.900002-2.4000006 0-3.30000022-.899998-.90000008-2.399998-.90000008-3.299997 0-1.9 1.89999962-4.5 3.00000002-7.3000005 3.00000002-2 0-4-.6000004-5.6999998-1.6999998 1.6999998-2.50000002 2.6999998-5.50000002 2.6999998-8.60000042 0-1.09999988-1-2.09999988-2.3000002-2.09999988s-2.2000022 1-2.2000022 2.30000238c0 1.7999999-.5 3.5999996-1.4000001 5.0999996-.9000001-1.4999995-1.4000001-3.1999998-1.4000001-5.0999996 0-1.30000238-1-2.30000238-2.2999999-2.30000238-1.3 0-2.3 1-2.3 2.30000238 0 4.0000002 1.60000002 7.69999762 4.3000002 10.50000022 1.6999998 1.6999974 3.6999998 2.9000006 5.8000002 3.5999994l-9.80000021 4.099998c1.40000001 3.3000014 5.09999991 4.9000024 8.39999961 3.5.6000004-.1999986 1.1000004-.5 1.6000004-1l-5.6000004 22.7000034c-2.4000001 9 3.4000006 17.899997 12.0999992 19.899997l-1.8999994 39.0999986c-.1000004 1 .8000002 1.900001 1.7999993 1.900001h1.8999991c.8 0 1.600001-.6 1.700001-1.5l6-33.6 6 33.6c.200001.800004.900002 1.5 1.700001 1.5h1.900002c1 0 1.900001-.800003 1.799999-1.900001l-1.900002-38.5999986h8.399998 5.200001l-1.8 38.5999986c-.099998 1 .8 1.900001 1.8 1.900001h1.900001c.799999 0 1.599999-.6 1.700001-1.5l6-33.6 6 33.6c.199997.800004.900002 1.5 1.699997 1.5h1.900001c1 0 1.900002-.800003 1.800004-1.900001z"></path></g><g transform="translate(1638 7877)"><path fill="#aa144e" d="m113.699997 12.8000026c2.800003-2.8 4.300003-6.50000002 4.300003-10.50000002 0-1.29999996-1-2.29999996-2.300003-2.29999996s-2.300003 1-2.300003 2.29999996c0 1.8000002-.5 3.5999999-1.400002 5.0999999-.900001-1.5999999-1.400001-3.2999997-1.400001-5.0999999 0-1.29999996-1-2.29999996-2.300003-2.29999996s-2.299988 1-2.299988 2.29999976c0 3.0999996 1 6.0999996 2.699997 8.60000062-1.699997 1.0999996-3.599999 1.6999998-5.699997 1.6999998-2.800003 0-5.300003-1.1000002-7.300003-3.00000002-.900002-.8999996-2.400002-.8999996-3.300003 0-.900002.89999982-.900002 2.39999982 0 3.30000022 2.199997 2.1999998 4.900001 3.5999996 8 4.1999994l-3 .8-17.900002 5 .199997.7c.900002 3.100001 3.5 5.5 6.699997 6.100001l10.900002 1.899999.099998-.0999998v8.9000018h-22.199989c-14.299999 0-25.900002 11.5999982-25.900002 25.900001l-1.7 38.5999986c-.099999 1 .799999 1.900001 1.799999 1.900001h1.900001c.8 0 1.599999-.599998 1.700001-1.5l6-33.5999976 6.000004 33.5999976c.199997.800003.900002 1.5 1.699997 1.5h1.900001c1 0 1.900002-.800002 1.800004-1.900001l-1.800004-38.5999986h5.199997 8.400002l-1.900002 38.5999986c-.099998 1 .800003 1.900001 1.800003 1.900001h1.900002c.800003 0 1.599998-.599998 1.699997-1.5l6-33.5999976 6 33.5999976c.199997.800003.900001 1.5 1.699997 1.5h1.900001c1 0 1.900002-.800002 1.800003-1.900001l-1.900001-39.0999986c8.599998-2 14.300003-10.8000028 12.099998-19.900001l-5.799995-22.9000018c.5.3999998 1 .7000008 1.599998 1 3.300004 1.3999998 7.099999-.2000012 8.400002-3.5l-9.800003-4c2.300003-.8000004 4.300003-2 6-3.7z"></path><path fill="#ffb45a" d="m68.5 66.1000004c0-14.299999-11.599998-25.900001-25.900002-25.900001h-22.199998v-8.9l.1.100001 11-1.9000004c3.299999-.5 5.799999-3 6.700001-6.0999996l.200001-.700001-17.900002-5-3-.799999c3-.5000003 5.800003-1.9000004 8-4.2000001.900002-.8999996.900002-2.4000006 0-3.30000022-.899998-.90000008-2.399998-.90000008-3.299997 0-1.9 1.89999962-4.5 3.00000002-7.3000005 3.00000002-2 0-4-.6000004-5.6999998-1.6999998 1.6999998-2.50000002 2.6999998-5.50000002 2.6999998-8.60000042 0-1.09999988-1-2.09999988-2.3000002-2.09999988s-2.2000022 1-2.2000022 2.30000238c0 1.7999999-.5 3.5999996-1.4000001 5.0999996-.9000001-1.4999995-1.4000001-3.1999998-1.4000001-5.0999996 0-1.30000238-1-2.30000238-2.2999999-2.30000238-1.3 0-2.3 1-2.3 2.30000238 0 4.0000002 1.60000002 7.69999762 4.3000002 10.50000022 1.6999998 1.6999974 3.6999998 2.9000006 5.8000002 3.5999994l-9.80000021 4.099998c1.40000001 3.3000014 5.09999991 4.9000024 8.39999961 3.5.6000004-.1999986 1.1000004-.5 1.6000004-1l-5.6000004 22.7000034c-2.4000001 9 3.4000006 17.899997 12.0999992 19.899997l-1.8999994 39.0999986c-.1000004 1 .8000002 1.900001 1.7999993 1.900001h1.8999991c.8 0 1.600001-.6 1.700001-1.5l6-33.6 6 33.6c.200001.800004.900002 1.5 1.700001 1.5h1.900002c1 0 1.900001-.800003 1.799999-1.900001l-1.900002-38.5999986h8.399998 5.200001l-1.8 38.5999986c-.099998 1 .8 1.900001 1.8 1.900001h1.900001c.799999 0 1.599999-.6 1.700001-1.5l6-33.6 6 33.6c.199997.800004.900002 1.5 1.699997 1.5h1.900001c1 0 1.900002-.800003 1.800004-1.900001z"></path></g><g transform="translate(700 7877)"><path fill="#aabd00" d="m113.699997 12.8000002c2.800003-2.8 4.300003-6.5 4.300003-10.5 0-1.29999996-1-2.29999996-2.300003-2.29999996s-2.300003 1-2.300003 2.29999996c0 1.8000002-.5 3.5999999-1.400002 5.0999999-.900001-1.5999999-1.400001-3.2999997-1.400001-5.0999999 0-1.29999996-1-2.29999996-2.300003-2.29999996s-2.300003 1-2.300003 2.29999996c0 3.0999999 1 6.0999994 2.699997 8.6000004-1.699997 1.0999996-3.599999 1.6999998-5.699997 1.6999998-2.800003 0-5.300003-1.1000002-7.300003-3-.900002-.8999996-2.400002-.8999996-3.300003 0-.900002.8999998-.900002 2.3999998 0 3.3000002 2.199997 2.1999998 4.900001 3.5999996 8 4.1999994l-3 .8-17.900002 5 .199997.7c.900002 3.100001 3.5 5.5 6.699997 6.100001l10.900002 1.899999.099998-.0999998v8.9000018h-22.199974c-14.299999 0-25.900002 11.5999982-25.900002 25.900001l-1.7 38.599999c-.099999 1 .799999 1.900001 1.799999 1.900001h1.900001c.8 0 1.599999-.599998 1.700001-1.5l6-33.599998 6.000004 33.599998c.199997.800003.900002 1.5 1.699997 1.5h1.900001c1 0 1.900002-.800003 1.800004-1.900001l-1.800004-38.599999h5.199997 8.400002l-1.900002 38.599999c-.099998 1 .800003 1.900001 1.800003 1.900001h1.900002c.800003 0 1.599998-.599998 1.699997-1.5l6-33.599998 6 33.599998c.199997.800003.900001 1.5 1.699997 1.5h1.900001c1 0 1.900002-.800003 1.800003-1.900001l-1.900001-39.099999c8.599998-2 14.300003-10.8000028 12.099998-19.900001l-5.799995-22.9000018c.5.3999998 1 .7000008 1.599998 1 3.300004 1.3999998 7.099999-.2000012 8.400002-3.5l-9.800003-4c2.300003-.8000004 4.300003-2 6-3.7z"></path><path fill="#a56e96" d="m68.5 66.099998c0-14.299999-11.599998-25.900001-25.900002-25.900001h-22.199998v-8.9l.1.100001 11-1.899998c3.299999-.5 5.799999-3 6.700001-6.100002l.200001-.700001-17.900002-5-3-.799999c3-.5000003 5.800003-1.899998 8-4.2000001.900002-.8999996.900002-2.4000006 0-3.3000002-.899998-.8999977-2.399998-.8999977-3.299997 0-1.9 1.8999996-4.5 3-7.3000005 3-2 0-4-.6000004-5.6999998-1.6999998 1.6999998-2.5 2.6999998-5.5 2.6999998-8.6000004-.0000029-1.0999975-1.0000029-2.0999975-2.3000021-2.0999975-1.2999993 0-2.2000003 1-2.2000003 2.3 0 1.7999999-.5 3.5999996-1.4000001 5.0999996-.9000001-1.4999995-1.4000001-3.1999998-1.4000001-5.0999996 0-1.3-1-2.3-2.2999999-2.3-1.3 0-2.3 1-2.3 2.3 0 4.0000002 1.60000002 7.7 4.3000002 10.5000002 1.6999998 1.6999998 3.6999998 2.9000006 5.8000002 3.5999994l-9.80000021 4.1000004c1.40000001 3.299999 5.09999991 4.9 8.39999961 3.5.6000004-.200001 1.1000004-.5 1.6000004-1l-5.6000004 22.700001c-2.4000001 9 3.4000006 17.899997 12.0999992 19.899997l-1.8999994 39.099999c-.1000004 1 .8000002 1.900001 1.7999993 1.900001h1.8999991c.8 0 1.600001-.599998 1.700001-1.5l6-33.599998 6 33.599998c.200001.800004.900002 1.5 1.700001 1.5h1.900002c1 0 1.900001-.800003 1.799999-1.900001l-1.900002-38.599999h8.399998 5.200001l-1.8 38.599999c-.099998 1 .8 1.900001 1.8 1.900001h1.900001c.799999 0 1.599999-.599998 1.700001-1.5l6-33.599998 6 33.599998c.199997.800004.900002 1.5 1.699997 1.5h1.900001c1 0 1.900002-.800003 1.800004-1.900001z"></path></g></g></g></svg> 